<svg width="53" height="40" viewBox="0 0 53 40" fill="none" xmlns="http://www.w3.org/2000/svg">
<g clip-path="url(#clip0_10_882)">
<path d="M23.1901 40C22.8856 40 22.5913 39.9601 22.3098 39.8767C22.0273 39.7951 21.801 39.6875 21.6309 39.5559L21.9308 38.8845C22.0908 39.0014 22.2831 39.0978 22.5085 39.1729C22.7348 39.248 22.9611 39.286 23.1901 39.286C23.3649 39.286 23.5056 39.2675 23.6133 39.2313C23.72 39.1952 23.8 39.1451 23.8506 39.0848C23.9012 39.0246 23.926 38.955 23.926 38.8743C23.926 38.7714 23.8865 38.6907 23.8065 38.6286C23.7264 38.5684 23.6197 38.5201 23.4882 38.4812C23.3548 38.4423 23.2104 38.4061 23.054 38.3709C22.8976 38.3356 22.7394 38.2948 22.583 38.2447C22.4247 38.1947 22.2794 38.1298 22.146 38.0463C22.0126 37.9647 21.9078 37.8562 21.8296 37.7227C21.7523 37.5883 21.7127 37.4204 21.7127 37.2192C21.7127 36.9995 21.7716 36.7983 21.8875 36.6165C22.0043 36.4357 22.1819 36.2901 22.4201 36.1835C22.6584 36.075 22.9565 36.0212 23.3171 36.0212C23.5562 36.0212 23.7936 36.0509 24.0282 36.1084C24.2627 36.1677 24.4679 36.2521 24.6417 36.3625L24.3639 37.0338C24.1937 36.9346 24.0162 36.8604 23.8359 36.8112C23.6538 36.7612 23.479 36.7361 23.3125 36.7361C23.1368 36.7361 22.9969 36.7565 22.8921 36.7936C22.7872 36.8326 22.7099 36.8845 22.6602 36.9503C22.6106 37.0162 22.5867 37.0894 22.5867 37.1701C22.5867 37.2721 22.6262 37.3555 22.7062 37.4167C22.7863 37.4798 22.8911 37.528 23.0218 37.5632C23.1533 37.5985 23.2987 37.6328 23.4587 37.668C23.6188 37.7032 23.777 37.7459 23.9325 37.7969C24.0898 37.8479 24.2333 37.9137 24.3639 37.9916C24.4946 38.0704 24.6013 38.1771 24.6831 38.3106C24.7641 38.445 24.8055 38.6101 24.8055 38.8085C24.8055 39.0246 24.7457 39.2221 24.6289 39.4019C24.5102 39.5818 24.3308 39.7265 24.0907 39.8368C23.8515 39.9453 23.5516 40.0009 23.191 40.0009L23.1901 40Z" fill="#0C863E"/>
<path d="M27.2635 40.0001C26.9618 40.0001 26.6831 39.9518 26.4292 39.8526C26.1753 39.7534 25.9526 39.6134 25.7631 39.4354C25.5746 39.2555 25.4292 39.045 25.3253 38.8021C25.2213 38.561 25.1698 38.2977 25.1698 38.0121C25.1698 37.7265 25.2213 37.4576 25.3253 37.2174C25.4292 36.9773 25.5746 36.7677 25.7631 36.5878C25.9517 36.4079 26.1734 36.2689 26.4264 36.1696C26.6794 36.0714 26.9563 36.0222 27.258 36.0222C27.5597 36.0222 27.8366 36.0704 28.0887 36.1669C28.3417 36.2652 28.5624 36.4033 28.752 36.5832C28.9405 36.7631 29.0877 36.9736 29.1917 37.2156C29.2956 37.4566 29.3471 37.7228 29.3471 38.013C29.3471 38.3032 29.2956 38.5628 29.1917 38.8076C29.0877 39.0506 28.9415 39.2629 28.752 39.4419C28.5634 39.6199 28.3417 39.7599 28.0887 39.8563C27.8366 39.9528 27.5616 40.001 27.2635 40.001V40.0001ZM27.258 39.2471C27.4282 39.2471 27.5855 39.2175 27.729 39.1572C27.8725 39.0969 27.9995 39.0098 28.108 38.8985C28.2175 38.7872 28.3012 38.6574 28.361 38.5081C28.4208 38.3607 28.4511 38.1938 28.4511 38.0121C28.4511 37.8303 28.4208 37.6634 28.361 37.5141C28.3012 37.3649 28.2175 37.235 28.108 37.1238C27.9985 37.0125 27.8725 36.9263 27.729 36.866C27.5855 36.8057 27.4282 36.7751 27.258 36.7751C27.0878 36.7751 26.9296 36.8057 26.7824 36.866C26.6371 36.9263 26.511 37.0125 26.4043 37.1238C26.2967 37.235 26.213 37.3649 26.1523 37.5141C26.0925 37.6634 26.063 37.8285 26.063 38.0121C26.063 38.1957 26.0925 38.3607 26.1523 38.5081C26.2121 38.6574 26.2958 38.7872 26.4043 38.8985C26.511 39.0098 26.6371 39.0969 26.7824 39.1572C26.9287 39.2175 27.086 39.2471 27.258 39.2471Z" fill="#0C863E"/>
<path d="M30.0112 39.9343V36.0872H30.9008V39.2092H32.8032V39.9333H30.0112V39.9343Z" fill="#0C863E"/>
<path d="M34.9512 39.9999C34.4093 39.9999 33.9862 39.8478 33.6808 39.5437C33.3744 39.2405 33.2227 38.8047 33.2227 38.2372V36.0879H34.1104V38.215C34.1104 38.5784 34.1849 38.8418 34.3339 39.004C34.4829 39.1682 34.6908 39.2479 34.9558 39.2479C35.2207 39.2479 35.4341 39.1672 35.5832 39.004C35.7322 38.8418 35.8067 38.5784 35.8067 38.215V36.0879H36.6733V38.2372C36.6733 38.8047 36.5215 39.2405 36.2151 39.5437C35.9106 39.8478 35.4884 39.9999 34.9503 39.9999H34.9512Z" fill="#0C863E"/>
<path d="M38.2675 39.9343V36.8132H37.0459V36.0872H40.3723V36.8132H39.1507V39.9343H38.2685H38.2675Z" fill="#0C863E"/>
<path d="M40.8461 39.9343V36.0872H41.7356V39.9343H40.8461Z" fill="#0C863E"/>
<path d="M44.488 40.0001C44.1871 40.0001 43.9093 39.9518 43.6545 39.8526C43.4006 39.7534 43.178 39.6134 42.9885 39.4354C42.7999 39.2555 42.6527 39.045 42.5488 38.8021C42.4448 38.561 42.3933 38.2977 42.3933 38.0121C42.3933 37.7265 42.4448 37.4576 42.5488 37.2174C42.6527 36.9773 42.799 36.7677 42.9885 36.5878C43.1771 36.4079 43.3988 36.2689 43.6518 36.1696C43.9038 36.0714 44.1816 36.0222 44.4824 36.0222C44.7832 36.0222 45.0611 36.0704 45.314 36.1669C45.567 36.2652 45.7878 36.4033 45.9773 36.5832C46.1659 36.7631 46.3112 36.9736 46.4152 37.2156C46.5191 37.4566 46.5706 37.7228 46.5706 38.013C46.5706 38.3032 46.5191 38.5628 46.4152 38.8076C46.3112 39.0506 46.1659 39.2629 45.9773 39.4419C45.7887 39.6199 45.567 39.7599 45.314 39.8563C45.0611 39.9528 44.786 40.001 44.487 40.001L44.488 40.0001ZM44.4824 39.2471C44.6545 39.2471 44.8108 39.2175 44.9553 39.1572C45.0979 39.0969 45.2239 39.0098 45.3334 38.8985C45.4428 38.7872 45.5275 38.6574 45.5873 38.5081C45.6471 38.3607 45.6765 38.1938 45.6765 38.0121C45.6765 37.8303 45.6471 37.6634 45.5873 37.5141C45.5275 37.3649 45.4419 37.235 45.3334 37.1238C45.2239 37.0125 45.0979 36.9263 44.9553 36.866C44.8118 36.8057 44.6545 36.7751 44.4824 36.7751C44.3104 36.7751 44.154 36.8057 44.0087 36.866C43.8633 36.9263 43.7373 37.0125 43.6297 37.1238C43.523 37.235 43.4393 37.3649 43.3795 37.5141C43.3197 37.6634 43.2893 37.8285 43.2893 38.0121C43.2893 38.1957 43.3197 38.3607 43.3795 38.5081C43.4393 38.6574 43.523 38.7872 43.6297 38.8985C43.7373 39.0098 43.8643 39.0969 44.0087 39.1572C44.154 39.2175 44.3123 39.2471 44.4824 39.2471Z" fill="#0C863E"/>
<path d="M47.2377 39.9343V36.0872H47.9681L50.2191 39.6746H49.8649V36.0872H50.737V39.9343H50.0066L47.7556 36.319H48.1097V39.9343H47.2377Z" fill="#0C863E"/>
<path d="M3.19763 32.342L0 37.1015C0 37.1015 11.3757 44.7085 20.8186 27.7336C20.8186 27.7336 12.2809 38.1725 3.19671 32.3429L3.19763 32.342Z" fill="#1BA64F"/>
<path d="M49.8024 6.18372L52.9991 1.42515C52.9945 1.42237 41.1579 -5.55971 31.7168 11.4124C31.6938 11.3716 41.5967 -0.020407 49.8015 6.18372H49.8024Z" fill="#1BA64F"/>
<path d="M32.3581 10.2881L20.7002 27.5852L20.9041 27.7248L32.5621 10.4277L32.3581 10.2881Z" fill="#1BA64F"/>
<path d="M20.3365 28.5125C30.4482 14.7227 20.1866 6.89868 20.1866 6.89868L16.9521 11.3958C16.9521 11.3958 24.2774 15.3226 20.3365 28.5125Z" fill="#0C863E"/>
<path d="M32.301 10.4092C22.1893 24.199 32.5236 31.9934 32.5236 31.9934L35.758 27.4963C35.758 27.4963 28.3978 24.046 32.301 10.4092Z" fill="#0C863E"/>
</g>
<defs>
<clipPath id="clip0_10_882">
<rect width="53" height="40" fill="white"/>
</clipPath>
</defs>
</svg>
