<svg xmlns="http://www.w3.org/2000/svg" xml:space="preserve" width="234.24477" height="43.049892" fill="none" viewBox="0 0 234.24477 43.049892"><path fill="#1428a0" d="M213.145 22.284h-17.5v2.3h17.5zM168.445 12.184v12.3h3v-5h2.5v-2.5h-2.6v-4.8zM157.245 35.484v-10h14.2v10.1zm11.3-2.4v-5.2h-8.4v5.2zM191.845 12.184v12.3h-3v-5h-3.9v-2.5h3.9v-4.8zM184.345 36.184c-4.3 0-7.9-2.5-7.9-5.7s3.5-5.7 7.9-5.7 7.9 2.5 7.9 5.7-3.5 5.7-7.9 5.7m4.9-5.7c0-1.8-2.2-3.2-4.9-3.2s-4.9 1.4-4.9 3.2 2.2 3.2 4.9 3.2 4.9-1.5 4.9-3.2M161.345 12.584s-.4 6.7 5 9.4l-1.5 2.1s-3.9-2.6-4.8-5.5c-.9 2.8-4.8 5.5-4.8 5.5l-1.6-2.1c5.4-2.8 5-9.4 5-9.4zM179.945 18.684c-.9 2.8-4.5 5.2-4.5 5.2l-1.6-2.1c5-2.5 4.7-9.2 4.7-9.2h2.8s-.4 6.7 4.7 9.2l-1.5 2.1c-.1 0-3.8-2.3-4.6-5.2M228.645 12.184v15.1h3v-7.8h2.6v-2.5h-2.6v-4.8zM221.445 12.584s-.4 6.7 5 9.4l-1.6 2.1s-3.9-2.6-4.8-5.5c-.9 2.8-4.8 5.5-4.8 5.5l-1.6-2.1c5.4-2.8 5-9.4 5-9.4zM217.845 25.484h2.9v10h-2.9z"/><path fill="#1428a0" d="M219.445 32.984h12.2v2.5h-12.2zM203.045 24.384h2.7v2h-2.7zM197.345 12.784h14.2v2.3h-14.2zM197.345 18.584h14.2v2.3h-14.2z"/><path fill="#1428a0" d="M197.345 25.984h14.2v2.3h-14.2zM197.345 29.384h14.2v2.3h-14.2zM197.345 33.284h14.2v2.3h-14.2z"/><path fill="#1428a0" d="M208.645 26.984h2.9v4.7h-2.884zM208.645 14.784h2.9v4.8h-2.9zM197.345 29.984h2.9v4.7h-2.9zM197.345 14.384h2.9v4.8h-2.9zM129.575 10.287c1.8 10.1-25.8 23.4-61.6 29.6s-66.2 3-67.9-7.1 25.8-23.4 61.5-29.6 66.2-3.1 68 7.1"/><path fill="#fff" d="M24.475 24.387c.1.3.1.7 0 1-.1.6-.7 1-1.3.9-.7.1-1.3-.4-1.3-1v-1.5h-3.6v1c0 3 2.4 3.9 4.9 3.9 2.4 0 4.4-.8 4.7-3.1.1-.7.1-1.5 0-2.2-.6-2.8-5.7-3.6-6-5.2-.1-.2-.1-.5 0-.7.1-.6.6-1 1.2-.9.6-.1 1.2.4 1.2 1v1h3.3v-.9c0-2.9-2.6-3.4-4.5-3.4-2.4 0-4.3.8-4.7 3q-.15.9 0 1.8c.6 2.8 5.4 3.5 6.1 5.3M68.075 24.387c.1.3.1.7 0 1-.1.6-.7 1-1.3.9-.6.1-1.2-.4-1.3-1v-1.5h-3.6v1c0 3 2.3 3.9 4.8 3.9 2.4 0 4.4-.8 4.7-3 .1-.7.1-1.5 0-2.2-.6-2.8-5.6-3.6-6-5.2-.1-.2-.1-.5 0-.7.1-.6.6-1 1.2-.9.6-.1 1.2.4 1.2 1v1h3.3v-.9c0-2.9-2.6-3.3-4.5-3.3-2.4 0-4.3.8-4.6 2.9q-.15.9 0 1.8c.7 2.7 5.4 3.4 6.1 5.2M95.875 25.487l-.2-10.8h3.3v13.3h-4.8l-3.4-11.1.3 11.1h-3.3v-13.2h5zM35.575 15.687l-1.9 12.4h-3.6l2.5-13.4h6l2.5 13.4h-3.6zM55.175 15.687l-2.3 12.4h-3.4l-2.3-12.4-.1 12.4h-3.4l.3-13.3h5.5l1.7 10.5 1.7-10.5h5.5l.3 13.4h-3.4zM79.275 26.187c.6.1 1.2-.4 1.3-1v-10.4h3.4v10.5c-.2 2.5-2.2 3.3-4.7 3.3s-4.4-.8-4.7-3.3v-10.5h3.4v10.4c.2.6.7 1 1.3 1M107.275 25.987c.6.1 1.2-.3 1.4-1v-2.4h-1.4v-2h4.7v4.5c-.2 2.4-2.3 3.3-4.7 3.3s-4.5-.9-4.7-3.3v-6.5c0-.2 0-.7.1-.9.3-2.5 2.3-3.3 4.7-3.3s4.5.8 4.7 3.3v1.3h-3.4v-1.3c-.1-.6-.7-1-1.3-1-.6-.1-1.2.4-1.3 1 0 .2-.1.4-.1.6v6.6c.1.8.7 1.2 1.3 1.1"/></svg>